<mxfile host="Electron" modified="2024-01-24T15:40:06.049Z" agent="Mozilla/5.0 (Windows NT 10.0; Win64; x64) AppleWebKit/537.36 (KHTML, like Gecko) draw.io/22.1.21 Chrome/120.0.6099.109 Electron/28.1.0 Safari/537.36" etag="MdibQYCUzYLRG8XGyfJ5" version="22.1.21" type="device">
  <diagram id="2-l1NJynXQIDxvilYgY3" name="Page-1">
    <mxGraphModel dx="1434" dy="884" grid="1" gridSize="10" guides="1" tooltips="1" connect="1" arrows="1" fold="1" page="1" pageScale="1" pageWidth="1200" pageHeight="300" math="0" shadow="0">
      <root>
        <mxCell id="0" />
        <mxCell id="1" parent="0" />
        <mxCell id="LGmv6He7c4hTNf7auWnH-17" value="" style="endArrow=classic;html=1;rounded=0;strokeWidth=1.5;" parent="1" edge="1">
          <mxGeometry width="50" height="50" relative="1" as="geometry">
            <mxPoint x="50" y="250" as="sourcePoint" />
            <mxPoint x="410" y="250" as="targetPoint" />
          </mxGeometry>
        </mxCell>
        <mxCell id="LGmv6He7c4hTNf7auWnH-18" value="" style="endArrow=none;html=1;rounded=0;fontStyle=1;strokeWidth=2;" parent="1" edge="1">
          <mxGeometry width="50" height="50" relative="1" as="geometry">
            <mxPoint x="50" y="220" as="sourcePoint" />
            <mxPoint x="370" y="220" as="targetPoint" />
          </mxGeometry>
        </mxCell>
        <mxCell id="LGmv6He7c4hTNf7auWnH-19" value="" style="endArrow=none;html=1;rounded=0;" parent="1" edge="1">
          <mxGeometry width="50" height="50" relative="1" as="geometry">
            <mxPoint x="50" y="190" as="sourcePoint" />
            <mxPoint x="150" y="190" as="targetPoint" />
          </mxGeometry>
        </mxCell>
        <mxCell id="LGmv6He7c4hTNf7auWnH-22" value="C" style="text;html=1;strokeColor=none;fillColor=none;align=center;verticalAlign=middle;whiteSpace=wrap;rounded=0;fontStyle=1" parent="1" vertex="1">
          <mxGeometry y="200" width="60" height="30" as="geometry" />
        </mxCell>
        <mxCell id="LGmv6He7c4hTNf7auWnH-23" value="A1" style="text;html=1;strokeColor=none;fillColor=none;align=center;verticalAlign=middle;whiteSpace=wrap;rounded=0;" parent="1" vertex="1">
          <mxGeometry y="170" width="60" height="30" as="geometry" />
        </mxCell>
        <mxCell id="LGmv6He7c4hTNf7auWnH-24" value="A2" style="text;html=1;strokeColor=none;fillColor=none;align=center;verticalAlign=middle;whiteSpace=wrap;rounded=0;" parent="1" vertex="1">
          <mxGeometry y="140" width="60" height="30" as="geometry" />
        </mxCell>
        <mxCell id="LGmv6He7c4hTNf7auWnH-25" value="A3" style="text;html=1;strokeColor=none;fillColor=none;align=center;verticalAlign=middle;whiteSpace=wrap;rounded=0;" parent="1" vertex="1">
          <mxGeometry y="110" width="60" height="30" as="geometry" />
        </mxCell>
        <mxCell id="LGmv6He7c4hTNf7auWnH-28" value="" style="endArrow=none;html=1;rounded=0;" parent="1" edge="1">
          <mxGeometry width="50" height="50" relative="1" as="geometry">
            <mxPoint x="150" y="160" as="sourcePoint" />
            <mxPoint x="250" y="160" as="targetPoint" />
          </mxGeometry>
        </mxCell>
        <mxCell id="LGmv6He7c4hTNf7auWnH-29" value="" style="endArrow=none;html=1;rounded=0;" parent="1" edge="1">
          <mxGeometry width="50" height="50" relative="1" as="geometry">
            <mxPoint x="250" y="130" as="sourcePoint" />
            <mxPoint x="350" y="130" as="targetPoint" />
          </mxGeometry>
        </mxCell>
        <mxCell id="LGmv6He7c4hTNf7auWnH-30" value="" style="endArrow=classic;html=1;rounded=0;strokeWidth=1.5;" parent="1" edge="1">
          <mxGeometry width="50" height="50" relative="1" as="geometry">
            <mxPoint x="470" y="250" as="sourcePoint" />
            <mxPoint x="830" y="250" as="targetPoint" />
          </mxGeometry>
        </mxCell>
        <mxCell id="LGmv6He7c4hTNf7auWnH-31" value="" style="endArrow=none;html=1;rounded=0;fontStyle=1;strokeWidth=2;" parent="1" edge="1">
          <mxGeometry width="50" height="50" relative="1" as="geometry">
            <mxPoint x="470" y="220" as="sourcePoint" />
            <mxPoint x="790" y="220" as="targetPoint" />
          </mxGeometry>
        </mxCell>
        <mxCell id="LGmv6He7c4hTNf7auWnH-35" value="C" style="text;html=1;strokeColor=none;fillColor=none;align=center;verticalAlign=middle;whiteSpace=wrap;rounded=0;fontStyle=1" parent="1" vertex="1">
          <mxGeometry x="420" y="200" width="60" height="30" as="geometry" />
        </mxCell>
        <mxCell id="LGmv6He7c4hTNf7auWnH-36" value="A1" style="text;html=1;strokeColor=none;fillColor=none;align=center;verticalAlign=middle;whiteSpace=wrap;rounded=0;" parent="1" vertex="1">
          <mxGeometry x="420" y="170" width="60" height="30" as="geometry" />
        </mxCell>
        <mxCell id="LGmv6He7c4hTNf7auWnH-37" value="A2" style="text;html=1;strokeColor=none;fillColor=none;align=center;verticalAlign=middle;whiteSpace=wrap;rounded=0;" parent="1" vertex="1">
          <mxGeometry x="420" y="140" width="60" height="30" as="geometry" />
        </mxCell>
        <mxCell id="LGmv6He7c4hTNf7auWnH-38" value="A3" style="text;html=1;strokeColor=none;fillColor=none;align=center;verticalAlign=middle;whiteSpace=wrap;rounded=0;" parent="1" vertex="1">
          <mxGeometry x="420" y="110" width="60" height="30" as="geometry" />
        </mxCell>
        <mxCell id="LGmv6He7c4hTNf7auWnH-39" value="" style="endArrow=none;html=1;rounded=0;" parent="1" edge="1">
          <mxGeometry width="50" height="50" relative="1" as="geometry">
            <mxPoint x="630" y="100" as="sourcePoint" />
            <mxPoint x="750" y="100" as="targetPoint" />
          </mxGeometry>
        </mxCell>
        <mxCell id="LGmv6He7c4hTNf7auWnH-40" value="" style="endArrow=none;html=1;rounded=0;" parent="1" edge="1">
          <mxGeometry width="50" height="50" relative="1" as="geometry">
            <mxPoint x="470" y="190" as="sourcePoint" />
            <mxPoint x="590" y="190" as="targetPoint" />
          </mxGeometry>
        </mxCell>
        <mxCell id="LGmv6He7c4hTNf7auWnH-41" value="" style="endArrow=none;html=1;rounded=0;" parent="1" edge="1">
          <mxGeometry width="50" height="50" relative="1" as="geometry">
            <mxPoint x="550" y="159.31" as="sourcePoint" />
            <mxPoint x="670" y="159.31" as="targetPoint" />
          </mxGeometry>
        </mxCell>
        <mxCell id="LGmv6He7c4hTNf7auWnH-42" value="" style="endArrow=none;html=1;rounded=0;" parent="1" edge="1">
          <mxGeometry width="50" height="50" relative="1" as="geometry">
            <mxPoint x="570.0000000000001" y="130.00000000000006" as="sourcePoint" />
            <mxPoint x="690" y="130.00000000000006" as="targetPoint" />
          </mxGeometry>
        </mxCell>
        <mxCell id="LGmv6He7c4hTNf7auWnH-43" value="A4" style="text;html=1;strokeColor=none;fillColor=none;align=center;verticalAlign=middle;whiteSpace=wrap;rounded=0;" parent="1" vertex="1">
          <mxGeometry x="420" y="80" width="60" height="30" as="geometry" />
        </mxCell>
        <mxCell id="LGmv6He7c4hTNf7auWnH-44" value="" style="endArrow=classic;html=1;rounded=0;strokeWidth=1.5;" parent="1" edge="1">
          <mxGeometry width="50" height="50" relative="1" as="geometry">
            <mxPoint x="880" y="250" as="sourcePoint" />
            <mxPoint x="1170" y="250" as="targetPoint" />
          </mxGeometry>
        </mxCell>
        <mxCell id="LGmv6He7c4hTNf7auWnH-45" value="" style="endArrow=none;html=1;rounded=0;fontStyle=1;strokeWidth=2;" parent="1" edge="1">
          <mxGeometry width="50" height="50" relative="1" as="geometry">
            <mxPoint x="880" y="220" as="sourcePoint" />
            <mxPoint x="1160" y="220" as="targetPoint" />
          </mxGeometry>
        </mxCell>
        <mxCell id="LGmv6He7c4hTNf7auWnH-46" value="C" style="text;html=1;strokeColor=none;fillColor=none;align=center;verticalAlign=middle;whiteSpace=wrap;rounded=0;fontStyle=1" parent="1" vertex="1">
          <mxGeometry x="830" y="200" width="60" height="30" as="geometry" />
        </mxCell>
        <mxCell id="LGmv6He7c4hTNf7auWnH-50" value="" style="endArrow=none;html=1;rounded=0;" parent="1" edge="1">
          <mxGeometry width="50" height="50" relative="1" as="geometry">
            <mxPoint x="940" y="130" as="sourcePoint" />
            <mxPoint x="1060" y="130" as="targetPoint" />
          </mxGeometry>
        </mxCell>
        <mxCell id="LGmv6He7c4hTNf7auWnH-51" value="" style="endArrow=none;html=1;rounded=0;" parent="1" edge="1">
          <mxGeometry width="50" height="50" relative="1" as="geometry">
            <mxPoint x="880" y="190" as="sourcePoint" />
            <mxPoint x="1000" y="190" as="targetPoint" />
          </mxGeometry>
        </mxCell>
        <mxCell id="LGmv6He7c4hTNf7auWnH-52" value="" style="endArrow=none;html=1;rounded=0;" parent="1" edge="1">
          <mxGeometry width="50" height="50" relative="1" as="geometry">
            <mxPoint x="900" y="170.00000000000006" as="sourcePoint" />
            <mxPoint x="1020" y="170.00000000000006" as="targetPoint" />
          </mxGeometry>
        </mxCell>
        <mxCell id="LGmv6He7c4hTNf7auWnH-53" value="" style="endArrow=none;html=1;rounded=0;" parent="1" edge="1">
          <mxGeometry width="50" height="50" relative="1" as="geometry">
            <mxPoint x="920" y="150" as="sourcePoint" />
            <mxPoint x="1040" y="150" as="targetPoint" />
          </mxGeometry>
        </mxCell>
        <mxCell id="LGmv6He7c4hTNf7auWnH-55" value="" style="endArrow=none;html=1;rounded=0;" parent="1" edge="1">
          <mxGeometry width="50" height="50" relative="1" as="geometry">
            <mxPoint x="960" y="110" as="sourcePoint" />
            <mxPoint x="1080" y="110" as="targetPoint" />
          </mxGeometry>
        </mxCell>
        <mxCell id="LGmv6He7c4hTNf7auWnH-56" value="" style="endArrow=none;html=1;rounded=0;" parent="1" edge="1">
          <mxGeometry width="50" height="50" relative="1" as="geometry">
            <mxPoint x="980" y="90" as="sourcePoint" />
            <mxPoint x="1100" y="90" as="targetPoint" />
          </mxGeometry>
        </mxCell>
        <mxCell id="LGmv6He7c4hTNf7auWnH-57" value="" style="endArrow=none;html=1;rounded=0;" parent="1" edge="1">
          <mxGeometry width="50" height="50" relative="1" as="geometry">
            <mxPoint x="1010" y="70" as="sourcePoint" />
            <mxPoint x="1130" y="70" as="targetPoint" />
          </mxGeometry>
        </mxCell>
        <mxCell id="LGmv6He7c4hTNf7auWnH-58" value="" style="endArrow=none;html=1;rounded=0;" parent="1" edge="1">
          <mxGeometry width="50" height="50" relative="1" as="geometry">
            <mxPoint x="1030" y="50" as="sourcePoint" />
            <mxPoint x="1150" y="50" as="targetPoint" />
          </mxGeometry>
        </mxCell>
        <mxCell id="LGmv6He7c4hTNf7auWnH-61" value="" style="endArrow=none;dashed=1;html=1;rounded=0;fillColor=#f5f5f5;strokeColor=#D92B09;" parent="1" edge="1">
          <mxGeometry width="50" height="50" relative="1" as="geometry">
            <mxPoint x="150" y="270" as="sourcePoint" />
            <mxPoint x="150" y="90" as="targetPoint" />
          </mxGeometry>
        </mxCell>
        <mxCell id="LGmv6He7c4hTNf7auWnH-62" value="" style="endArrow=none;dashed=1;html=1;rounded=0;fillColor=#f5f5f5;strokeColor=#D92B09;" parent="1" edge="1">
          <mxGeometry width="50" height="50" relative="1" as="geometry">
            <mxPoint x="250" y="270" as="sourcePoint" />
            <mxPoint x="250" y="90" as="targetPoint" />
          </mxGeometry>
        </mxCell>
        <mxCell id="LGmv6He7c4hTNf7auWnH-63" value="" style="endArrow=none;dashed=1;html=1;rounded=0;fillColor=#f5f5f5;strokeColor=#D92B09;" parent="1" edge="1">
          <mxGeometry width="50" height="50" relative="1" as="geometry">
            <mxPoint x="550" y="250" as="sourcePoint" />
            <mxPoint x="550" y="70" as="targetPoint" />
          </mxGeometry>
        </mxCell>
        <mxCell id="LGmv6He7c4hTNf7auWnH-65" value="&lt;font style=&quot;font-size: 12px&quot;&gt;Entry times at&amp;nbsp;&lt;i&gt;d&lt;sub&gt;k&amp;nbsp;&lt;/sub&gt;&lt;/i&gt;&lt;i&gt;= d·(k-1)&lt;/i&gt;&lt;i&gt;, &lt;/i&gt;for &lt;i&gt;k&lt;/i&gt;≥1 and&amp;nbsp;&lt;i&gt;0&amp;lt;d&lt;/i&gt;&lt;span style=&quot;font-family: &amp;quot;calibri&amp;quot;&quot;&gt;≤&lt;/span&gt;&lt;i&gt;2n&lt;/i&gt;&lt;/font&gt;" style="text;html=1;strokeColor=none;fillColor=none;align=left;verticalAlign=middle;whiteSpace=wrap;rounded=0;" parent="1" vertex="1">
          <mxGeometry x="65" y="20" width="360" height="30" as="geometry" />
        </mxCell>
        <mxCell id="LGmv6He7c4hTNf7auWnH-66" value="&lt;div&gt;&lt;/div&gt;&lt;span style=&quot;border-color: var(--border-color);&quot;&gt;Entry times at&lt;i&gt; d&lt;/i&gt;&lt;sub style=&quot;font-style: italic; border-color: var(--border-color);&quot;&gt;1&lt;/sub&gt;&lt;i&gt;&amp;nbsp;= 0,&amp;nbsp;&lt;/i&gt;&lt;i style=&quot;font-style: italic; background-color: initial;&quot;&gt;d&lt;span style=&quot;font-size: 10px&quot;&gt;&lt;sub&gt;2&lt;/sub&gt;&amp;nbsp;&lt;/span&gt;= 300,&amp;nbsp;&lt;/i&gt;&lt;i style=&quot;font-style: italic; background-color: initial;&quot;&gt;d&lt;span style=&quot;font-size: 10px&quot;&gt;&lt;sub&gt;4&lt;/sub&gt;&amp;nbsp;&lt;/span&gt;= 800,&amp;nbsp;&lt;/i&gt;&lt;span style=&quot;background-color: initial;&quot;&gt;and&amp;nbsp;&lt;/span&gt;&lt;i style=&quot;font-style: italic; border-color: var(--border-color);&quot;&gt;&lt;i style=&quot;border-color: var(--border-color); background-color: initial;&quot;&gt;d&lt;sub style=&quot;border-color: var(--border-color);&quot;&gt;2&lt;/sub&gt;&lt;/i&gt;&lt;/i&gt;&lt;span style=&quot;font-style: italic; background-color: initial; font-family: calibri;&quot;&gt;≤&lt;/span&gt;&lt;i style=&quot;font-style: italic; background-color: initial;&quot;&gt;d&lt;sub&gt;3&lt;/sub&gt;&lt;/i&gt;&lt;span style=&quot;font-style: italic; background-color: initial; font-family: calibri;&quot;&gt;≤&lt;/span&gt;&lt;i style=&quot;font-style: italic; border-color: var(--border-color);&quot;&gt;&lt;i style=&quot;border-color: var(--border-color); background-color: initial;&quot;&gt;d&lt;sub style=&quot;border-color: var(--border-color);&quot;&gt;4&amp;nbsp;&lt;/sub&gt;&lt;/i&gt;&lt;/i&gt;&lt;br&gt;&lt;/span&gt;" style="text;html=1;strokeColor=none;fillColor=none;align=left;verticalAlign=middle;whiteSpace=wrap;rounded=0;" parent="1" vertex="1">
          <mxGeometry x="475" y="5" width="360" height="60" as="geometry" />
        </mxCell>
        <mxCell id="LGmv6He7c4hTNf7auWnH-67" value="Entry times at&amp;nbsp;&lt;i style=&quot;border-color: var(--border-color);&quot;&gt;d&lt;sub style=&quot;border-color: var(--border-color);&quot;&gt;k&amp;nbsp;&lt;/sub&gt;&lt;/i&gt;&lt;i style=&quot;border-color: var(--border-color);&quot;&gt;= d·(k-1)&lt;/i&gt;&lt;i&gt;,&amp;nbsp;&lt;/i&gt;for&amp;nbsp;&lt;i style=&quot;border-color: var(--border-color);&quot;&gt;k&lt;/i&gt;≥1 and&amp;nbsp;&lt;i&gt;d=300&lt;/i&gt;" style="text;html=1;strokeColor=none;fillColor=none;align=left;verticalAlign=middle;whiteSpace=wrap;rounded=0;" parent="1" vertex="1">
          <mxGeometry x="885" y="20" width="290" height="30" as="geometry" />
        </mxCell>
        <mxCell id="LGmv6He7c4hTNf7auWnH-68" value="" style="endArrow=none;dashed=1;html=1;rounded=0;fillColor=#f5f5f5;strokeColor=#D92B09;" parent="1" edge="1">
          <mxGeometry width="50" height="50" relative="1" as="geometry">
            <mxPoint x="630" y="250" as="sourcePoint" />
            <mxPoint x="630" y="70" as="targetPoint" />
          </mxGeometry>
        </mxCell>
        <mxCell id="LGmv6He7c4hTNf7auWnH-69" value="" style="endArrow=none;dashed=1;html=1;rounded=0;fillColor=#f5f5f5;strokeColor=#0E00D9;" parent="1" edge="1">
          <mxGeometry width="50" height="50" relative="1" as="geometry">
            <mxPoint x="570" y="250" as="sourcePoint" />
            <mxPoint x="570" y="70" as="targetPoint" />
          </mxGeometry>
        </mxCell>
        <mxCell id="LGmv6He7c4hTNf7auWnH-71" value="&lt;i&gt;d&lt;sub&gt;2&lt;/sub&gt;&lt;/i&gt;" style="text;html=1;align=center;verticalAlign=middle;resizable=0;points=[];autosize=1;strokeColor=none;fillColor=none;" parent="1" vertex="1">
          <mxGeometry x="135" y="271" width="30" height="20" as="geometry" />
        </mxCell>
        <mxCell id="LGmv6He7c4hTNf7auWnH-73" value="&lt;i&gt;d&lt;sub&gt;3&lt;/sub&gt;&lt;/i&gt;" style="text;html=1;align=center;verticalAlign=middle;resizable=0;points=[];autosize=1;strokeColor=none;fillColor=none;" parent="1" vertex="1">
          <mxGeometry x="240" y="271" width="30" height="20" as="geometry" />
        </mxCell>
        <mxCell id="LGmv6He7c4hTNf7auWnH-74" value="&lt;i&gt;d&lt;sub&gt;2&lt;/sub&gt;&lt;/i&gt;" style="text;html=1;align=center;verticalAlign=middle;resizable=0;points=[];autosize=1;strokeColor=none;fillColor=none;" parent="1" vertex="1">
          <mxGeometry x="530" y="260" width="30" height="20" as="geometry" />
        </mxCell>
        <mxCell id="LGmv6He7c4hTNf7auWnH-75" value="&lt;i&gt;d&lt;sub&gt;4&lt;/sub&gt;&lt;/i&gt;" style="text;html=1;align=center;verticalAlign=middle;resizable=0;points=[];autosize=1;strokeColor=none;fillColor=none;" parent="1" vertex="1">
          <mxGeometry x="610" y="260" width="30" height="20" as="geometry" />
        </mxCell>
        <mxCell id="1r-bIsDnKTiyUsv8Mo2x-3" value="&lt;b&gt;&lt;font style=&quot;font-size: 18px&quot;&gt;(I)&lt;/font&gt;&lt;/b&gt;" style="text;html=1;align=center;verticalAlign=middle;resizable=0;points=[];autosize=1;strokeColor=none;fillColor=none;" parent="1" vertex="1">
          <mxGeometry x="25" y="10" width="40" height="40" as="geometry" />
        </mxCell>
        <mxCell id="1r-bIsDnKTiyUsv8Mo2x-4" value="&lt;b&gt;&lt;font style=&quot;font-size: 18px&quot;&gt;(II)&lt;/font&gt;&lt;/b&gt;" style="text;html=1;align=center;verticalAlign=middle;resizable=0;points=[];autosize=1;strokeColor=none;fillColor=none;" parent="1" vertex="1">
          <mxGeometry x="430" y="10" width="50" height="40" as="geometry" />
        </mxCell>
        <mxCell id="1r-bIsDnKTiyUsv8Mo2x-5" value="&lt;b&gt;&lt;font style=&quot;font-size: 18px&quot;&gt;(III)&lt;/font&gt;&lt;/b&gt;" style="text;html=1;align=center;verticalAlign=middle;resizable=0;points=[];autosize=1;strokeColor=none;fillColor=none;" parent="1" vertex="1">
          <mxGeometry x="840" y="10" width="50" height="40" as="geometry" />
        </mxCell>
        <mxCell id="aCSH_HUlUN5xjVTYZ2vd-2" value="&lt;b&gt;&lt;font style=&quot;font-size: 14px&quot;&gt;Three arms with equidistant entry times&lt;/font&gt;&lt;/b&gt;" style="text;html=1;align=center;verticalAlign=middle;resizable=0;points=[];autosize=1;strokeColor=none;fillColor=none;" parent="1" vertex="1">
          <mxGeometry x="45" width="280" height="20" as="geometry" />
        </mxCell>
        <mxCell id="aCSH_HUlUN5xjVTYZ2vd-3" value="&lt;b&gt;&lt;font style=&quot;font-size: 14px&quot;&gt;Four arms with non-equidistant entry times&lt;/font&gt;&lt;/b&gt;" style="text;html=1;align=center;verticalAlign=middle;resizable=0;points=[];autosize=1;strokeColor=none;fillColor=none;" parent="1" vertex="1">
          <mxGeometry x="470" width="300" height="20" as="geometry" />
        </mxCell>
        <mxCell id="aCSH_HUlUN5xjVTYZ2vd-4" value="&lt;b&gt;&lt;font style=&quot;font-size: 14px&quot;&gt;Multiple arms with equidistant entry times&lt;/font&gt;&lt;/b&gt;" style="text;html=1;align=center;verticalAlign=middle;resizable=0;points=[];autosize=1;strokeColor=none;fillColor=none;" parent="1" vertex="1">
          <mxGeometry x="875" width="290" height="20" as="geometry" />
        </mxCell>
        <mxCell id="aCSH_HUlUN5xjVTYZ2vd-5" value="&lt;i&gt;d&lt;sub&gt;3&lt;/sub&gt;&lt;/i&gt;" style="text;html=1;align=center;verticalAlign=middle;resizable=0;points=[];autosize=1;strokeColor=none;fillColor=none;" parent="1" vertex="1">
          <mxGeometry x="560" y="260" width="30" height="20" as="geometry" />
        </mxCell>
        <mxCell id="LEHnanmH9IcU5SpTAGnk-1" value="&lt;i style=&quot;font-size: 10px&quot;&gt;&lt;b&gt;X-axis:&lt;br&gt;Total sample size in the trial&lt;/b&gt;&lt;/i&gt;" style="text;html=1;align=right;verticalAlign=middle;resizable=0;points=[];autosize=1;strokeColor=none;fillColor=none;" parent="1" vertex="1">
          <mxGeometry x="260" y="251" width="150" height="40" as="geometry" />
        </mxCell>
        <mxCell id="LEHnanmH9IcU5SpTAGnk-2" value="&lt;i style=&quot;font-size: 10px&quot;&gt;&lt;b&gt;X-axis:&lt;br&gt;Total sample size in the trial&lt;/b&gt;&lt;/i&gt;" style="text;html=1;align=right;verticalAlign=middle;resizable=0;points=[];autosize=1;strokeColor=none;fillColor=none;" parent="1" vertex="1">
          <mxGeometry x="685" y="251" width="150" height="40" as="geometry" />
        </mxCell>
        <mxCell id="LEHnanmH9IcU5SpTAGnk-3" value="&lt;i style=&quot;font-size: 10px&quot;&gt;&lt;b&gt;X-axis:&lt;br&gt;Total sample size in the trial&lt;/b&gt;&lt;/i&gt;" style="text;html=1;align=right;verticalAlign=middle;resizable=0;points=[];autosize=1;strokeColor=none;fillColor=none;" parent="1" vertex="1">
          <mxGeometry x="1010" y="250" width="150" height="40" as="geometry" />
        </mxCell>
      </root>
    </mxGraphModel>
  </diagram>
</mxfile>
